<svg width="24" height="24" viewBox="0 0 24 24" fill="none" xmlns="http://www.w3.org/2000/svg">
<g clip-path="url(#clip0)">
<path d="M18.7273 2.69247C18.7194 2.66884 18.7084 2.64852 18.6961 2.62709C18.6844 2.60658 18.6725 2.58772 18.6571 2.56977C18.641 2.55109 18.6229 2.53607 18.6035 2.52069C18.5852 2.50641 18.5674 2.49322 18.5465 2.48205C18.5236 2.46997 18.4996 2.46282 18.4744 2.45568C18.4599 2.45165 18.4478 2.44268 18.4321 2.44048L6.04269 0.563965C6.03719 0.563233 6.03225 0.565614 6.02621 0.564698C6.0176 0.563965 6.00973 0.55957 6.00075 0.55957C5.99965 0.55957 5.99892 0.55957 5.99782 0.55957C5.99746 0.55957 5.99746 0.55957 5.99709 0.55957C5.99654 0.55957 5.99617 0.559937 5.99581 0.559937C3.55178 0.561768 1.448 2.03467 0.51569 4.13717C0.508181 4.15053 0.501039 4.16372 0.495362 4.17837C0.178184 4.90887 0 5.71372 0 6.55995V6.56032C0 7.40564 0.177818 8.20939 0.494264 8.93952C0.500673 8.95637 0.508548 8.97102 0.517155 8.9864C1.1473 10.4042 2.3087 11.5334 3.74974 12.1192V17.8132C3.74974 18.9259 4.56246 19.8505 5.62497 20.0298V20.8125C5.62497 21.8468 4.78331 22.6881 3.749 22.6881H0.377977C0.170676 22.6881 0.00293005 22.8556 0.00293005 23.0631C0.00293005 23.2704 0.170676 23.4382 0.377977 23.4382H3.749C5.197 23.4382 6.37507 22.2601 6.37507 20.8125V20.0294C7.43758 19.8498 8.2503 18.9255 8.2503 17.8128V15.5636H9.00113C9.20861 15.5636 9.37617 15.3961 9.37617 15.1886V12.9361C9.37617 12.9354 9.37581 12.935 9.37581 12.9343C9.37581 12.9334 9.37617 12.933 9.37617 12.9323C9.37581 12.9022 9.36537 12.8761 9.35859 12.848C9.35328 12.8284 9.35365 12.807 9.34614 12.7887C9.33534 12.7636 9.31647 12.7436 9.30073 12.7215C9.28882 12.7046 9.28022 12.6845 9.26556 12.6698C9.24762 12.6521 9.22436 12.6416 9.2033 12.6277C9.18407 12.6155 9.16759 12.599 9.14672 12.59C9.10203 12.5711 9.05295 12.5607 9.00113 12.5607C9.00003 12.5607 8.99893 12.5607 8.99747 12.5607L8.2503 12.5678V12.2243L18.4317 10.6824C18.4474 10.6802 18.4595 10.6712 18.4744 10.667C18.4996 10.6595 18.5236 10.6529 18.5461 10.6408C18.567 10.63 18.5852 10.6168 18.6031 10.6021C18.6225 10.5868 18.6406 10.5717 18.6568 10.5531C18.6721 10.5351 18.6837 10.5155 18.6958 10.4956C18.708 10.4743 18.719 10.454 18.7269 10.4304C18.7348 10.4067 18.7381 10.3831 18.7412 10.3584C18.7434 10.3427 18.7509 10.3284 18.7509 10.3119V2.81095C18.7509 2.79447 18.7434 2.78018 18.7415 2.76444C18.7384 2.73971 18.7348 2.71572 18.7273 2.69247ZM6.37214 11.7505V1.37229L16.8757 2.96276V10.1595L6.37214 11.7505ZM17.6257 3.07649L18.0008 3.13307V9.9894L17.6257 10.046V3.07649ZM1.46191 9.18821L2.62496 9.18931H2.62533C2.83226 9.18931 3.00038 9.02175 3.00038 8.81463C3.00038 8.60733 2.83281 8.43922 2.6257 8.43922L1.10298 8.43812C0.921502 7.96565 0.806314 7.46149 0.768773 6.93573L2.6246 6.93683H2.62496C2.8319 6.93683 3.00001 6.76927 3.00001 6.56215C3.00001 6.35485 2.83226 6.18674 2.62533 6.18674L0.769139 6.18564C0.806681 5.65951 0.921502 5.15536 1.10335 4.68325L2.62533 4.68435H2.6257C2.83281 4.68435 3.00074 4.51661 3.00074 4.30967C3.00074 4.10219 2.83318 3.93426 2.62606 3.93426L1.46118 3.93316C2.31145 2.4707 3.84423 1.45635 5.62204 1.32871V11.7917C3.8446 11.6639 2.31218 10.6501 1.46191 9.18821ZM8.62608 13.3148V14.8135H8.2503V13.3183L8.62608 13.3148ZM7.50021 17.8128C7.50021 18.6402 6.82739 19.313 6.00002 19.313C5.17265 19.313 4.49983 18.6402 4.49983 17.8128V12.3635C4.96901 12.4849 5.45814 12.5565 5.96394 12.5592C5.97182 12.5596 5.97859 12.5633 5.98647 12.5633C6.00533 12.5633 6.02401 12.5618 6.04269 12.5589L7.50021 12.3378V17.8128Z" fill="#548FCC"/>
<path d="M5.6257 14.4385V15.1879C5.41822 15.1879 5.25066 15.3554 5.25066 15.5629C5.25066 15.7704 5.41822 15.938 5.6257 15.938V16.6903C5.6257 16.8977 5.79326 17.0653 6.00075 17.0653C6.20823 17.0653 6.37579 16.8977 6.37579 16.6903V15.938C6.58328 15.938 6.75084 15.7704 6.75084 15.5629C6.75084 15.3554 6.58328 15.1879 6.37579 15.1879V14.4385C6.37579 14.2312 6.20823 14.0635 6.00075 14.0635C5.79326 14.0635 5.6257 14.2312 5.6257 14.4385Z" fill="#548FCC"/>
<path d="M23.625 6.18677H19.8746C19.6671 6.18677 19.4995 6.35433 19.4995 6.56181C19.4995 6.7693 19.6671 6.93686 19.8746 6.93686H23.625C23.8323 6.93686 24.0001 6.7693 24.0001 6.56181C24.0001 6.35433 23.8323 6.18677 23.625 6.18677Z" fill="#548FCC"/>
<path d="M19.4995 5.06157C19.4995 5.26906 19.6671 5.43662 19.8746 5.43662H21.7474C21.9549 5.43662 22.1225 5.26906 22.1225 5.06157C22.1225 4.85409 21.9549 4.68652 21.7474 4.68652H19.8746C19.6671 4.68652 19.4995 4.85409 19.4995 5.06157Z" fill="#548FCC"/>
<path d="M21.7474 7.68701H19.8746C19.6671 7.68701 19.4995 7.85457 19.4995 8.06206C19.4995 8.26954 19.6671 8.4371 19.8746 8.4371H21.7474C21.9549 8.4371 22.1225 8.26954 22.1225 8.06206C22.1225 7.85457 21.9549 7.68701 21.7474 7.68701Z" fill="#548FCC"/>
</g>
<defs>
<clipPath id="clip0">
<rect width="24" height="24" fill="white"/>
</clipPath>
</defs>
</svg>
