<svg width="24" height="24" viewBox="0 0 24 24" fill="none" xmlns="http://www.w3.org/2000/svg">
<path d="M23.9558 5.69118C23.8732 5.384 23.6717 5.12214 23.396 4.96337C23.1201 4.80383 22.792 4.76067 22.4842 4.84328C22.1769 4.92608 21.915 5.12741 21.7562 5.40314L21.5563 5.75113C21.3663 5.64197 21.1235 5.70622 21.0124 5.89525L19.9966 7.62679L19.6486 7.42682C19.5564 7.37351 19.4467 7.35906 19.3439 7.38679C19.241 7.41471 19.1535 7.48228 19.1006 7.57484C18.9922 7.76602 19.0582 8.00895 19.2486 8.1187L19.5966 8.31866L16.1972 14.2097L15.3573 16.4534L14.9574 17.2011C14.7232 17.6085 14.7482 18.1148 15.0214 18.497L14.1216 19.6007L13.8697 18.969C13.756 18.6874 13.493 18.4945 13.1905 18.4708C12.8878 18.447 12.5978 18.5966 12.4418 18.8569L12.2979 19.1008L12.162 17.5011C12.1307 17.1226 11.8376 16.8184 11.4607 16.7727C11.0836 16.7272 10.7267 16.9531 10.6062 17.3132L9.62235 20.2647C9.55362 20.4734 9.6661 20.6984 9.87426 20.7687C9.91332 20.7868 9.95531 20.7978 9.99827 20.8005C10.1701 20.8011 10.3232 20.6916 10.3783 20.5287L11.358 17.5772L11.498 19.2008C11.5269 19.5472 11.7759 19.8353 12.1145 19.9138C12.4531 19.9923 12.8035 19.8431 12.9817 19.5449L13.1298 19.3008L13.3778 19.9288C13.483 20.1934 13.7211 20.3822 14.0029 20.4242C14.2846 20.4662 14.5674 20.3551 14.7455 20.1327L15.6774 18.953C15.7805 18.9799 15.8867 18.9934 15.9933 18.993C16.422 18.9963 16.82 18.7706 17.0371 18.4009L17.437 17.7331L18.9608 15.8814L22.3962 9.91839L22.7441 10.1184C22.8369 10.1715 22.9045 10.2592 22.932 10.3625C22.9597 10.465 22.9453 10.5743 22.8922 10.6663L21.2924 13.4379C21.2321 13.5289 21.2116 13.6406 21.2358 13.7472C21.26 13.8537 21.3266 13.9456 21.4203 14.0017C21.5125 14.0552 21.6223 14.0696 21.725 14.0419C21.8279 14.014 21.9154 13.9464 21.9683 13.8539L23.568 11.0823C23.7276 10.8063 23.7707 10.4783 23.6879 10.1705C23.6051 9.86312 23.4038 9.60126 23.1281 9.44249L22.7801 9.24253L23.7799 7.51079C23.8891 7.32078 23.8248 7.07825 23.636 6.96694L23.8359 6.61895C23.9998 6.33873 24.0431 6.00402 23.9558 5.69118ZM22.4481 5.80307C22.501 5.71051 22.5889 5.64275 22.6922 5.61522C22.7949 5.58983 22.9035 5.60408 22.9961 5.65525C23.0888 5.70817 23.1564 5.79604 23.1841 5.89915C23.2095 6.00187 23.1952 6.11044 23.1441 6.20301L22.9441 6.55099L22.2481 6.15106L22.4481 5.80307ZM16.9971 16.9693L16.7971 16.8533L16.2052 16.5093L16.7731 14.9896L18.0328 15.7174L16.9971 16.9693ZM15.7973 18.125C15.6284 18.0072 15.5764 17.7807 15.6774 17.6011L15.8773 17.2533L16.5731 17.6532L16.3732 17.9971C16.3171 18.0943 16.223 18.1635 16.1134 18.1879C16.0039 18.2121 15.8893 18.1894 15.7973 18.125ZM18.4888 15.0617L17.1051 14.2618L20.3045 8.71859L21.6883 9.51846L18.4888 15.0617ZM22.0882 8.82658L20.7045 8.02672L21.5043 6.64297L22.8881 7.44283L22.0882 8.82658Z" fill="#548FCC"/>
<path d="M6.31083 17.925L4.89525 19.3369L4.04735 18.489C3.89133 18.3339 3.63942 18.3339 3.48339 18.489C3.40762 18.5642 3.36505 18.6663 3.36505 18.7729C3.36505 18.8795 3.40762 18.9819 3.48339 19.0568L4.33129 19.9047C4.48126 20.0535 4.68396 20.1369 4.89525 20.1367C5.10772 20.1379 5.31217 20.0545 5.46312 19.9047L6.87479 18.489C7.01071 18.3302 7.00153 18.0937 6.8539 17.9461C6.70607 17.7983 6.46959 17.7891 6.31083 17.925Z" fill="#548FCC"/>
<path d="M1.59973 19.0008C1.59973 20.8784 3.12174 22.4002 4.99915 22.4002C6.87657 22.4002 8.39857 20.8784 8.39857 19.0008C8.39857 18.7799 8.2195 18.6008 7.99864 18.6008C7.77778 18.6008 7.59871 18.7799 7.59871 19.0008C7.59871 20.4365 6.43484 21.6003 4.99915 21.6003C3.56346 21.6003 2.39959 20.4365 2.39959 19.0008C2.39959 17.5651 3.56346 16.4012 4.99915 16.4012C5.56195 16.3996 6.1097 16.5822 6.55885 16.9212C6.73557 17.0538 6.98631 17.0179 7.11871 16.8412C7.25131 16.6644 7.21557 16.4139 7.03884 16.2813C6.00874 15.5088 4.63046 15.3846 3.4789 15.9603C2.32715 16.5361 1.59973 17.7133 1.59973 19.0008Z" fill="#548FCC"/>
<path d="M14.3976 3.20343C14.6184 3.20343 14.7975 3.02455 14.7975 2.8035C14.7975 2.58264 14.6184 2.40356 14.3976 2.40356H3.99933C3.77847 2.40356 3.5994 2.58264 3.5994 2.8035V4.40322C3.5994 4.62428 3.77847 4.80315 3.99933 4.80315H14.3976C14.6184 4.80315 14.7975 4.62428 14.7975 4.40322C14.7975 4.18236 14.6184 4.00329 14.3976 4.00329H4.39926V3.20343H14.3976Z" fill="#548FCC"/>
<path d="M5.19913 5.60303C4.97827 5.60303 4.79919 5.7821 4.79919 6.00295C4.79919 6.224 4.97827 6.40288 5.19913 6.40288H13.1978C13.4186 6.40288 13.5977 6.224 13.5977 6.00295C13.5977 5.7821 13.4186 5.60303 13.1978 5.60303H5.19913Z" fill="#548FCC"/>
<path d="M15.5973 8.40259H6.79883C6.57797 8.40259 6.3989 8.58166 6.3989 8.80252C6.3989 9.02358 6.57797 9.20246 6.79883 9.20246H15.5973C15.8182 9.20246 15.9972 9.02358 15.9972 8.80252C15.9972 8.58166 15.8182 8.40259 15.5973 8.40259Z" fill="#548FCC"/>
<path d="M11.598 11.2021C11.598 10.9812 11.419 10.8021 11.1981 10.8021H3.19946C2.9786 10.8021 2.79953 10.9812 2.79953 11.2021C2.79953 11.4231 2.9786 11.602 3.19946 11.602H11.1981C11.419 11.602 11.598 11.4231 11.598 11.2021Z" fill="#548FCC"/>
<path d="M15.5973 10.8021H12.7978C12.577 10.8021 12.3979 10.9812 12.3979 11.2021C12.3979 11.4231 12.577 11.602 12.7978 11.602H15.5973C15.8182 11.602 15.9973 11.4231 15.9973 11.2021C15.9973 10.9812 15.8182 10.8021 15.5973 10.8021Z" fill="#548FCC"/>
<path d="M7.19878 13.6016C7.41964 13.6016 7.59871 13.4227 7.59871 13.2017C7.59871 12.9808 7.41964 12.8018 7.19878 12.8018H3.19946C2.9786 12.8018 2.79953 12.9808 2.79953 13.2017C2.79953 13.4227 2.9786 13.6016 3.19946 13.6016H7.19878Z" fill="#548FCC"/>
<path d="M8.79852 13.6016H11.598C11.8189 13.6016 11.998 13.4227 11.998 13.2017C11.998 12.9808 11.8189 12.8018 11.598 12.8018H8.79852C8.57766 12.8018 8.39859 12.9808 8.39859 13.2017C8.39859 13.4227 8.57766 13.6016 8.79852 13.6016Z" fill="#548FCC"/>
<path d="M17.9969 18.4009C17.7761 18.4009 17.597 18.58 17.597 18.8008V22.8001C17.597 23.0212 17.4179 23.2001 17.1971 23.2001H1.1998C0.978935 23.2001 0.799864 23.0212 0.799864 22.8001V1.20382C0.799864 0.982963 0.978935 0.803892 1.1998 0.803892H17.1971C17.4179 0.803892 17.597 0.982963 17.597 1.20382V8.71465C17.597 8.93551 17.7761 9.11458 17.9969 9.11458C18.2178 9.11458 18.3969 8.93551 18.3969 8.71465V1.20382C18.3969 0.541241 17.8597 0.00402832 17.1971 0.00402832H1.1998C0.537213 0.00402832 0 0.541241 0 1.20382V22.8001C0 23.4629 0.537213 23.9999 1.1998 23.9999H17.1971C17.8597 23.9999 18.3969 23.4629 18.3969 22.8001V18.8008C18.3969 18.58 18.2178 18.4009 17.9969 18.4009Z" fill="#548FCC"/>
</svg>
