<svg width="24" height="24" viewBox="0 0 24 24" fill="none" xmlns="http://www.w3.org/2000/svg">
<path d="M22.3156 13.3346H20.4663V9.51343C20.466 9.19031 20.3374 8.88052 20.109 8.65204C19.8805 8.42356 19.5707 8.29504 19.2476 8.29468H9.138C8.81487 8.29504 8.50509 8.42356 8.27661 8.65204C8.04812 8.88052 7.91961 9.19031 7.91925 9.51343V13.3346H6.06989C5.39957 13.3346 4.85437 13.8698 4.85437 14.5276V21.3047C4.85982 21.5733 4.97034 21.829 5.16223 22.0171C5.35411 22.2051 5.61206 22.3104 5.88072 22.3104C6.14938 22.3104 6.40733 22.2051 6.59922 22.0171C6.7911 21.829 6.90163 21.5733 6.90707 21.3047V19.0481H21.4647V21.2978C21.4695 21.5687 21.5805 21.8268 21.7737 22.0167C21.967 22.2065 22.2271 22.3129 22.498 22.3129C22.7689 22.3129 23.0289 22.2065 23.2222 22.0167C23.4154 21.8268 23.5264 21.5687 23.5312 21.2978V14.5276C23.5312 13.8698 22.9859 13.3346 22.3156 13.3346ZM5.41687 18.4856V17.6492H22.9687V18.4856H5.41687ZM8.48175 9.51343C8.48194 9.33944 8.55115 9.17264 8.67418 9.04961C8.7972 8.92658 8.96401 8.85738 9.138 8.85718H19.2476C19.4216 8.85736 19.5884 8.92657 19.7114 9.0496C19.8344 9.17263 19.9036 9.33944 19.9038 9.51343V13.3346H19.234V12.2531C19.234 11.5953 18.6887 11.0602 18.0185 11.0602H15.7439C15.0736 11.0602 14.5283 11.5953 14.5283 12.2531V13.3345H13.8573V12.2531C13.8573 11.5953 13.3119 11.0602 12.6417 11.0602H10.3671C9.69679 11.0602 9.15154 11.5953 9.15154 12.2531V13.3345H8.48175V9.51343ZM15.0908 13.3346V12.2531C15.0941 12.083 15.1647 11.9211 15.2871 11.8029C15.4095 11.6848 15.5738 11.62 15.7439 11.6227H18.0187C18.1888 11.62 18.353 11.6849 18.4754 11.803C18.5977 11.9212 18.6683 12.083 18.6715 12.2531V13.3345L15.0908 13.3346ZM9.71428 13.3346V12.2531C9.71753 12.083 9.7881 11.9211 9.91052 11.8029C10.0329 11.6848 10.1972 11.62 10.3673 11.6227H12.6419C12.812 11.62 12.9762 11.6848 13.0986 11.803C13.221 11.9212 13.2915 12.083 13.2948 12.2531V13.3345L9.71428 13.3346ZM6.07012 13.8971H22.3156C22.4858 13.8944 22.6501 13.9592 22.7725 14.0774C22.8949 14.1955 22.9655 14.3574 22.9687 14.5276V17.0867H5.41687V14.5276C5.42011 14.3574 5.49067 14.1956 5.61308 14.0774C5.73549 13.9592 5.89976 13.8944 6.06989 13.8971H6.07012ZM6.34481 21.3046C6.34117 21.4252 6.29071 21.5396 6.20411 21.6236C6.11752 21.7077 6.00161 21.7546 5.88096 21.7546C5.7603 21.7546 5.64439 21.7077 5.5578 21.6236C5.47121 21.5396 5.42074 21.4252 5.4171 21.3046V19.0481H6.34481V21.3046ZM22.4982 21.7504C22.3758 21.7526 22.2575 21.7062 22.1693 21.6214C22.081 21.5366 22.03 21.4202 22.0274 21.2978V19.0481H22.9687V21.2978C22.9661 21.4202 22.9151 21.5366 22.8269 21.6214C22.7386 21.7062 22.6203 21.7526 22.4979 21.7504H22.4982Z" fill="#548FCC"/>
<path d="M3.82701 21.539H3.17639V10.575H5.00114C5.05467 10.5751 5.10739 10.5618 5.15443 10.5362C5.20147 10.5107 5.24133 10.4737 5.27034 10.4287C5.29936 10.3837 5.3166 10.3321 5.32048 10.2787C5.32437 10.2253 5.31476 10.1718 5.29256 10.1231L4.15561 7.63686C4.12998 7.58108 4.08891 7.53382 4.03725 7.50067C3.98559 7.46753 3.92552 7.44988 3.86414 7.44983H1.92614C1.86478 7.44987 1.80472 7.46749 1.75307 7.50061C1.70142 7.53374 1.66034 7.58097 1.63471 7.63672L0.497668 10.1228C0.475464 10.1715 0.465862 10.225 0.469743 10.2784C0.473625 10.3318 0.490867 10.3834 0.519883 10.4284C0.548899 10.4734 0.58876 10.5103 0.6358 10.5359C0.682841 10.5615 0.735552 10.5748 0.78909 10.5747H1.45781V11.411C1.38417 11.4572 1.32342 11.5213 1.28123 11.5973C1.23905 11.6733 1.21679 11.7588 1.21654 11.8457C1.21785 11.9834 1.27347 12.1151 1.37131 12.212C1.46916 12.3089 1.60131 12.3633 1.73904 12.3633C1.87676 12.3633 2.00891 12.3089 2.10676 12.212C2.2046 12.1151 2.26022 11.9834 2.26153 11.8457C2.26129 11.7588 2.23904 11.6733 2.19686 11.5973C2.15469 11.5213 2.09395 11.4572 2.02031 11.411V10.5747H2.61389V21.539H1.96331C1.88872 21.539 1.81718 21.5687 1.76443 21.6214C1.71169 21.6742 1.68206 21.7457 1.68206 21.8203C1.68206 21.8949 1.71169 21.9664 1.76443 22.0192C1.81718 22.0719 1.88872 22.1015 1.96331 22.1015H3.82701C3.9016 22.1015 3.97314 22.0719 4.02589 22.0192C4.07863 21.9664 4.10826 21.8949 4.10826 21.8203C4.10826 21.7457 4.07863 21.6742 4.02589 21.6214C3.97314 21.5687 3.9016 21.539 3.82701 21.539ZM1.73906 11.8916C1.72769 11.8907 1.71711 11.8855 1.70962 11.8769C1.70212 11.8683 1.69832 11.8571 1.69903 11.8457C1.69914 11.8405 1.70007 11.8352 1.70179 11.8303C1.71422 11.832 1.72675 11.8329 1.73929 11.833C1.75175 11.8329 1.76418 11.832 1.77651 11.8303C1.77825 11.8352 1.77918 11.8404 1.77928 11.8457C1.77999 11.8571 1.77615 11.8683 1.76862 11.8769C1.76108 11.8855 1.75046 11.8908 1.73906 11.8916ZM2.08125 8.012H3.70879L4.62347 10.0122H1.16681L2.08125 8.012Z" fill="#548FCC"/>
<path d="M8.6492 1.68713C8.57461 1.68713 8.50307 1.71677 8.45033 1.76951C8.39758 1.82225 8.36795 1.89379 8.36795 1.96838V6.73557C8.36795 6.81016 8.39758 6.8817 8.45033 6.93444C8.50307 6.98719 8.57461 7.01682 8.6492 7.01682H19.7364C19.811 7.01682 19.8826 6.98719 19.9353 6.93444C19.988 6.8817 20.0177 6.81016 20.0177 6.73557V1.96838C20.0177 1.89379 19.988 1.82225 19.9353 1.76951C19.8826 1.71677 19.811 1.68713 19.7364 1.68713H8.6492ZM15.1752 6.45432L15.135 6.41148L16.4483 5.30523L17.6755 6.45451L15.1752 6.45432ZM10.9002 6.45432L12.7159 4.65845L14.4034 6.45409L10.9002 6.45432ZM19.4553 6.45432H18.4983L16.6505 4.7237C16.6003 4.67661 16.5345 4.64961 16.4656 4.64779C16.3968 4.64598 16.3297 4.66948 16.277 4.71385L14.7492 6.00071L12.9281 4.06304C12.9024 4.03567 12.8715 4.01372 12.8372 3.9985C12.8029 3.98327 12.7659 3.97508 12.7283 3.9744C12.6908 3.97333 12.6534 3.97999 12.6185 3.99396C12.5836 4.00794 12.5519 4.02893 12.5254 4.05563L10.1002 6.45409H8.93045V2.2494H19.4552L19.4553 6.45432Z" fill="#548FCC"/>
<path d="M14.758 4.86502C15.2848 4.86502 15.7134 4.40723 15.7134 3.84464C15.7134 3.28205 15.2848 2.82422 14.758 2.82422C14.2312 2.82422 13.8025 3.282 13.8025 3.84464C13.8025 4.40728 14.2312 4.86502 14.758 4.86502ZM14.758 3.38672C14.9746 3.38672 15.1509 3.59212 15.1509 3.84464C15.1509 4.09716 14.9746 4.30252 14.758 4.30252C14.5413 4.30252 14.365 4.09711 14.365 3.84464C14.365 3.59217 14.5413 3.38672 14.758 3.38672Z" fill="#548FCC"/>
</svg>
