<svg width="24" height="24" viewBox="0 0 24 24" fill="none" xmlns="http://www.w3.org/2000/svg">
<path d="M23.625 4.3125H0.375C0.167625 4.3125 0 4.4805 0 4.6875V18.1879C0 18.3952 0.167625 18.5629 0.375 18.5629H1.50075V19.3125C1.50075 19.5199 1.66838 19.6875 1.87575 19.6875H5.62575C5.83313 19.6875 6.00075 19.5199 6.00075 19.3125V18.5629H17.9993V19.3125C17.9993 19.5199 18.1669 19.6875 18.3743 19.6875H22.1243C22.3316 19.6875 22.4993 19.5199 22.4993 19.3125V18.5629H23.625C23.8324 18.5629 24 18.3952 24 18.1879V4.6875C24 4.4805 23.8324 4.3125 23.625 4.3125ZM5.25075 18.9375H2.25075V18.5629H5.25075V18.9375ZM21.7493 18.9375H18.7493V18.5629H21.7493V18.9375ZM23.25 17.8129H0.75V5.0625H23.25V17.8129Z" fill="#548FCC"/>
<path d="M1.87538 17.0625H17.625C17.8324 17.0625 18 16.8949 18 16.6875V6.1875C18 5.9805 17.8324 5.8125 17.625 5.8125H1.87538C1.66801 5.8125 1.50038 5.9805 1.50038 6.1875V16.6875C1.50038 16.8949 1.66801 17.0625 1.87538 17.0625ZM16.875 10.3129H17.25V12.5632H16.875V10.3129ZM2.25038 6.5625H17.25V9.56287H16.5C16.2926 9.56287 16.125 9.73087 16.125 9.93787V12.9382C16.125 13.1456 16.2926 13.3132 16.5 13.3132H17.25V16.3125H2.25038V6.5625Z" fill="#548FCC"/>
<path d="M19.1355 11.064H19.1314C18.9244 11.064 18.7586 11.232 18.7586 11.439C18.7586 11.646 18.9281 11.814 19.1355 11.814C19.3425 11.814 19.5105 11.646 19.5105 11.439C19.5105 11.232 19.3425 11.064 19.1355 11.064Z" fill="#548FCC"/>
<path d="M20.6359 11.064H20.6318C20.4248 11.064 20.259 11.232 20.259 11.439C20.259 11.646 20.4285 11.814 20.6359 11.814C20.8429 11.814 21.0109 11.646 21.0109 11.439C21.0109 11.232 20.8429 11.064 20.6359 11.064Z" fill="#548FCC"/>
<path d="M22.1362 11.064H22.1325C21.9255 11.064 21.7598 11.232 21.7598 11.439C21.7598 11.646 21.9292 11.814 22.1366 11.814C22.3436 11.814 22.5116 11.646 22.5116 11.439C22.5116 11.232 22.3432 11.064 22.1362 11.064Z" fill="#548FCC"/>
<path d="M19.1355 12.5643H19.1314C18.9244 12.5643 18.7586 12.732 18.7586 12.9393C18.7586 13.1467 18.9281 13.3143 19.1355 13.3143C19.3425 13.3143 19.5105 13.1467 19.5105 12.9393C19.5105 12.732 19.3425 12.5643 19.1355 12.5643Z" fill="#548FCC"/>
<path d="M20.6359 12.5643H20.6318C20.4248 12.5643 20.259 12.732 20.259 12.9393C20.259 13.1467 20.4285 13.3143 20.6359 13.3143C20.8429 13.3143 21.0109 13.1467 21.0109 12.9393C21.0109 12.732 20.8429 12.5643 20.6359 12.5643Z" fill="#548FCC"/>
<path d="M22.1362 12.5643H22.1325C21.9255 12.5643 21.7598 12.732 21.7598 12.9393C21.7598 13.1467 21.9292 13.3143 22.1366 13.3143C22.3436 13.3143 22.5116 13.1467 22.5116 12.9393C22.5116 12.732 22.3432 12.5643 22.1362 12.5643Z" fill="#548FCC"/>
<path d="M19.1355 14.0651H19.1314C18.9244 14.0651 18.7586 14.2327 18.7586 14.4401C18.7586 14.6474 18.9281 14.8151 19.1355 14.8151C19.3425 14.8151 19.5105 14.6474 19.5105 14.4401C19.5105 14.2327 19.3425 14.0651 19.1355 14.0651Z" fill="#548FCC"/>
<path d="M20.6359 14.0651H20.6318C20.4248 14.0651 20.259 14.2327 20.259 14.4401C20.259 14.6474 20.4285 14.8151 20.6359 14.8151C20.8429 14.8151 21.0109 14.6474 21.0109 14.4401C21.0109 14.2327 20.8429 14.0651 20.6359 14.0651Z" fill="#548FCC"/>
<path d="M22.1362 14.0651H22.1325C21.9255 14.0651 21.7598 14.2327 21.7598 14.4401C21.7598 14.6474 21.9292 14.8151 22.1366 14.8151C22.3436 14.8151 22.5116 14.6474 22.5116 14.4401C22.5116 14.2327 22.3432 14.0651 22.1362 14.0651Z" fill="#548FCC"/>
<path d="M19.1243 10.314H22.1246C22.332 10.314 22.4996 10.146 22.4996 9.93898V8.06323C22.4996 7.85623 22.332 7.68823 22.1246 7.68823H19.1243C18.9169 7.68823 18.7493 7.85623 18.7493 8.06323V9.93898C18.7493 10.146 18.9169 10.314 19.1243 10.314ZM19.4993 8.43823H21.7496V9.56398H19.4993V8.43823Z" fill="#548FCC"/>
</svg>
