<svg width="24" height="24" viewBox="0 0 24 24" fill="none" xmlns="http://www.w3.org/2000/svg">
<g clip-path="url(#clip0)">
<path d="M22.5987 4.41663H1.40125C1.26056 4.41663 1.14647 4.53072 1.14647 4.6714V17.5882C1.14647 17.7289 1.26056 17.843 1.40125 17.843H22.5987C22.7394 17.843 22.8535 17.7289 22.8535 17.5882V4.6714C22.8535 4.53066 22.7394 4.41663 22.5987 4.41663ZM22.3439 17.3335H1.65602V4.92618H22.3439V17.3335Z" fill="#548FCC"/>
<path d="M22.8818 3.27014H1.11827C0.501656 3.27014 0 3.7718 0 4.38836V17.8713C0 18.4879 0.501656 18.9895 1.11827 18.9895H8.67715L8.27409 19.9656H6.65513C6.44408 19.9656 6.27297 20.1367 6.27297 20.3477C6.27297 20.5588 6.44408 20.7299 6.65513 20.7299H17.3451C17.5562 20.7299 17.7272 20.5588 17.7272 20.3477C17.7272 20.1367 17.5562 19.9656 17.3451 19.9656H15.7261L15.323 18.9895H22.8819C23.4985 18.9895 24.0001 18.4878 24.0001 17.8713V4.38836C24 3.7718 23.4984 3.27014 22.8818 3.27014ZM14.8991 19.9656H9.10094L9.50405 18.9895H14.496L14.8991 19.9656ZM23.2357 17.8713C23.2357 18.0665 23.0769 18.2252 22.8818 18.2252H1.11827C0.923108 18.2252 0.764331 18.0664 0.764331 17.8713V4.38836C0.764331 4.1932 0.923108 4.03442 1.11827 4.03442H22.8818C23.0769 4.03442 23.2357 4.1932 23.2357 4.38836V17.8713Z" fill="#548FCC"/>
</g>
<defs>
<clipPath id="clip0">
<rect width="24" height="24" fill="white"/>
</clipPath>
</defs>
</svg>
