<svg width="24" height="24" viewBox="0 0 24 24" fill="none" xmlns="http://www.w3.org/2000/svg">
<path d="M6.49476 7.84961C5.44761 7.84961 4.5957 8.88294 4.5957 10.153C4.5957 11.4231 5.44761 12.4564 6.49476 12.4564C7.54177 12.4564 8.39363 11.4231 8.39363 10.153C8.39363 8.88294 7.54182 7.84961 6.49476 7.84961ZM6.49476 11.6202C5.91868 11.6202 5.43197 10.9484 5.43197 10.1531C5.43197 9.35779 5.91873 8.68592 6.49476 8.68592C7.07076 8.68592 7.55736 9.35779 7.55736 10.1531C7.55736 10.9484 7.07076 11.6202 6.49476 11.6202Z" fill="#548FCC"/>
<path d="M20.4853 3.51472C18.2188 1.24825 15.2053 0 12 0C8.7946 0 5.78119 1.2482 3.51467 3.51467C1.2482 5.78119 0 8.7947 0 12C0 15.2053 1.2482 18.2188 3.51467 20.4853C5.78119 22.7518 8.7947 24 12 24C12.0002 24 11.9999 24 12 24C15.2051 24 18.2189 22.7516 20.4853 20.4853C22.7518 18.2188 24 15.2053 24 12C24 8.7947 22.7518 5.78119 20.4853 3.51472ZM19.8939 19.8939C17.7854 22.0025 14.9819 23.1638 12 23.1637C9.01808 23.1637 6.21458 22.0026 4.10601 19.8939C-0.246698 15.5412 -0.246698 8.45877 4.10601 4.10606C6.21458 1.99749 9.01803 0.836264 12 0.836264C14.9819 0.836264 17.7854 1.99749 19.8939 4.10611C22.0025 6.21462 23.1637 9.01813 23.1637 12C23.1637 14.982 22.0025 17.7854 19.8939 19.8939Z" fill="#548FCC"/>
<path d="M16.9843 5.01924C16.9716 4.89425 16.9034 4.7816 16.7986 4.71243C15.3746 3.77277 13.7153 3.27612 12 3.27612C9.66979 3.27612 7.47902 4.18357 5.83128 5.8313C4.40191 7.26073 3.50863 9.15418 3.31609 11.163C3.12616 13.1448 3.62202 15.1463 4.71241 16.7987C4.78157 16.9035 4.89422 16.9717 5.01922 16.9844C5.03334 16.9857 5.04736 16.9865 5.06143 16.9865C5.17167 16.9865 5.27822 16.9428 5.35707 16.864L16.8639 5.35709C16.9528 5.2683 16.9969 5.14419 16.9843 5.01924ZM10.606 8.4553C10.606 7.66002 11.0926 6.98815 11.6686 6.98815C12.2098 6.98815 12.672 7.58121 12.726 8.31245L11.2428 9.79564C10.8622 9.56129 10.606 9.03493 10.606 8.4553ZM13.433 7.60536C13.1535 6.75488 12.4682 6.15189 11.6686 6.15189C10.6216 6.15189 9.76969 7.18522 9.76969 8.4553C9.76969 9.25463 10.1071 9.98045 10.6422 10.3962L5.14038 15.8981C3.40395 12.8457 3.90783 8.93739 6.42257 6.42269C7.9123 4.93286 9.89312 4.11239 12 4.11239C13.3774 4.11239 14.7146 4.46637 15.898 5.14035L13.433 7.60536Z" fill="#548FCC"/>
<path d="M19.2876 7.2014C19.2185 7.09657 19.1058 7.02834 18.9808 7.01569C18.8566 7.00345 18.7319 7.04723 18.643 7.13602L7.13603 18.6429C7.04719 18.7317 7.00307 18.8558 7.01571 18.9807C7.0284 19.1057 7.09663 19.2184 7.20141 19.2875C8.62537 20.2272 10.2847 20.7238 12 20.7238C14.3302 20.7238 16.521 19.8164 18.1688 18.1687C19.5981 16.7393 20.4914 14.8458 20.6839 12.837C20.8739 10.8553 20.378 8.85375 19.2876 7.2014ZM17.9053 10.1528C17.9053 10.9481 17.4186 11.62 16.8425 11.62C16.4957 11.62 16.1724 11.3814 15.9728 10.9887L17.7086 9.253C17.8405 9.48267 17.9053 9.78024 17.9053 10.1528ZM13.4477 13.5139C14.7695 14.1594 15.6151 15.4344 15.6151 16.8037C15.6151 17.132 15.5417 17.3568 15.3968 17.4718C15.0066 17.7815 13.9699 17.5397 13.1368 17.3455C12.5444 17.2074 11.9847 17.0769 11.5126 17.0769C10.9932 17.0769 10.3811 17.2188 9.78911 17.3559C9.7101 17.3742 9.63051 17.3926 9.55097 17.4107L13.4477 13.5139ZM17.5774 17.5774C16.0877 19.0671 14.1069 19.8876 12 19.8876C10.6226 19.8876 9.28538 19.5336 8.10197 18.8597L8.53043 18.4312C8.56034 18.4346 8.59103 18.435 8.62217 18.4316C9.05491 18.3844 9.52406 18.2757 9.97781 18.1706C10.5241 18.0441 11.0889 17.9132 11.5126 17.9132C11.8886 17.9132 12.4027 18.0331 12.9469 18.16C13.5779 18.3071 14.2209 18.457 14.7884 18.457C15.2216 18.457 15.6108 18.3696 15.9167 18.1268C16.2714 17.8452 16.4513 17.4001 16.4513 16.8037C16.4513 15.2044 15.5292 13.7154 14.0667 12.8949L15.3616 11.6C15.7161 12.1375 16.2534 12.4563 16.8425 12.4563C17.8896 12.4563 18.7415 11.423 18.7415 10.1529C18.7415 9.53915 18.5967 9.03601 18.3115 8.6501L18.8596 8.10205C20.596 11.1543 20.0922 15.0627 17.5774 17.5774Z" fill="#548FCC"/>
</svg>
