<svg width="24" height="24" viewBox="0 0 24 24" fill="none" xmlns="http://www.w3.org/2000/svg">
<path d="M12 24C18.6274 24 24 18.6274 24 12C24 5.37258 18.6274 0 12 0C5.37258 0 0 5.37258 0 12C0.00749482 18.6243 5.37569 23.9925 12 24ZM12 0.8C18.1856 0.8 23.2 5.81441 23.2 12C23.2 18.1856 18.1856 23.2 12 23.2C5.81441 23.2 0.8 18.1856 0.8 12C0.807054 5.81734 5.81734 0.807054 12 0.8Z" fill="#548FCC"/>
<path d="M19.4052 18.6748C19.4852 18.7555 19.5958 18.7983 19.7093 18.7925C19.8228 18.7868 19.9285 18.7331 20 18.6448C23.4207 14.5091 23.1406 8.45157 19.3528 4.64918C19.1959 4.4976 18.9464 4.49976 18.7921 4.65406C18.6378 4.80835 18.6356 5.05783 18.7872 5.21478C22.1653 8.60656 22.5342 13.9665 19.6528 17.7892L15.6 13.7384V8.89998C15.5994 8.45947 15.392 8.04479 15.04 7.77998C14.8889 7.66667 14.8 7.48884 14.8 7.29998V4.79998C14.8 4.13724 14.2627 3.59998 13.6 3.59998C12.9373 3.59998 12.4 4.13724 12.4 4.79998V7.29998C12.4 7.48884 12.3111 7.66667 12.16 7.77998C11.808 8.04479 11.6006 8.45947 11.6 8.89998V9.73798L6.208 4.34598C8.94352 2.28176 12.5705 1.82833 15.73 3.15558C15.8613 3.21196 16.0128 3.19399 16.1273 3.10844C16.2417 3.0229 16.3019 2.88277 16.2851 2.74084C16.2682 2.59892 16.1769 2.47676 16.0456 2.42038C12.4631 0.913654 8.33967 1.52766 5.3516 4.01278C5.2672 4.0853 5.21682 4.1897 5.21257 4.3009C5.20832 4.41209 5.25058 4.52003 5.3292 4.59878C10.2088 9.47238 0.776404 0.0215834 19.4052 18.6748ZM12.4 8.89998C12.4 8.71113 12.4889 8.5333 12.64 8.41998C12.992 8.15518 13.1994 7.7405 13.2 7.29998V4.79998C13.2 4.57907 13.3791 4.39998 13.6 4.39998C13.8209 4.39998 14 4.57907 14 4.79998V7.29998C14.0006 7.7405 14.208 8.15518 14.56 8.41998C14.7111 8.5333 14.8 8.71113 14.8 8.89998V12.94L12.4 10.54V8.89998Z" fill="#548FCC"/>
<path d="M4.04319 17.3639C1.85543 14.1415 1.84498 9.91307 4.01679 6.6799L9.3384 11.9999H6.39999C6.21652 11.9999 6.05658 12.1247 6.01199 12.3027C5.96719 12.4815 5.58919 14.0727 6.04199 14.9787C6.49479 15.8847 7.99999 16.2671 7.99999 17.1999V18.7999H7.19999C6.97908 18.7999 6.79999 18.979 6.79999 19.1999C6.79999 19.4208 6.97908 19.5999 7.19999 19.5999H9.59999C9.82091 19.5999 10 19.4208 10 19.1999C10 18.979 9.82091 18.7999 9.59999 18.7999H8.79999V17.1999C8.79999 16.2647 10.3032 15.8883 10.76 14.9779C10.9377 14.554 11.0115 14.0937 10.9752 13.6355L11.6 14.2615V18.3999C11.6 19.0626 12.1373 19.5999 12.8 19.5999H14.4C15.0627 19.5999 15.6 19.0626 15.6 18.3999V18.2615L17.322 19.9835C14.0882 22.1555 9.85921 22.1449 6.63639 19.9567C6.5181 19.8738 6.36432 19.8612 6.23407 19.9236C6.10381 19.986 6.01732 20.1138 6.00777 20.2579C5.99823 20.402 6.06711 20.5401 6.18799 20.6191C9.83259 23.0923 14.6427 22.9899 18.1788 20.3639C18.2736 20.2952 18.3336 20.1883 18.3428 20.0716C18.352 19.9548 18.3096 19.8399 18.2268 19.7571L4.24279 5.7731C4.15996 5.69044 4.04508 5.64821 3.92844 5.65752C3.81179 5.66683 3.70507 5.72675 3.63639 5.8215C1.00988 9.35736 0.907342 14.1677 3.38079 17.8123C3.50611 17.9912 3.75176 18.0365 3.93264 17.914C4.11351 17.7916 4.16273 17.5467 4.04319 17.3639ZM10.0432 14.6211C9.82319 15.0611 8.92319 15.4611 8.4012 16.1131C7.87639 15.4539 6.98199 15.0667 6.75919 14.6211C6.55519 14.2135 6.61639 13.3879 6.72479 12.7999H10.0756C10.1904 13.4283 10.2428 14.2175 10.042 14.6211H10.0432ZM14.8 18.3999C14.8 18.6208 14.6209 18.7999 14.4 18.7999H12.8C12.5791 18.7999 12.4 18.6208 12.4 18.3999V15.0615L14.8 17.4615V18.3999Z" fill="#548FCC"/>
</svg>
