<svg width="24" height="24" viewBox="0 0 24 24" fill="none" xmlns="http://www.w3.org/2000/svg">
<g clip-path="url(#clip0)">
<path d="M12 1.875C9.63247 1.87734 7.34053 2.70885 5.52225 4.22513C5.48727 4.25433 5.45875 4.2905 5.43851 4.33134C5.41827 4.37217 5.40677 4.41677 5.40472 4.4623C5.40267 4.50783 5.41013 4.55328 5.42663 4.59577C5.44312 4.63826 5.46828 4.67684 5.5005 4.70906L19.2909 18.4995C19.3524 18.561 19.4359 18.5956 19.5229 18.5957H19.5377C19.5832 18.5937 19.6278 18.5822 19.6687 18.5619C19.7095 18.5417 19.7457 18.5131 19.7749 18.4781C21.0081 17.0007 21.7944 15.2022 22.0415 13.2936C22.2887 11.385 21.9865 9.44557 21.1703 7.7027C20.3542 5.95983 19.058 4.48584 17.4337 3.45363C15.8094 2.42142 13.9245 1.8738 12 1.875ZM12.8288 11.1094H18.1093V12.8906H14.61L12.8288 11.1094ZM17.3008 7.40625H17.4649C17.7507 7.40655 18.0248 7.52023 18.2269 7.72236C18.429 7.92448 18.5427 8.19853 18.543 8.48438C18.543 8.5714 18.5776 8.65486 18.6391 8.7164C18.7006 8.77793 18.7841 8.8125 18.8711 8.8125C19.0068 8.8127 19.1368 8.86667 19.2327 8.96259C19.3286 9.05851 19.3826 9.18854 19.3828 9.32419V10.4531H17.3711C17.048 10.4527 16.7383 10.3242 16.5098 10.0957C16.2813 9.86725 16.1528 9.55749 16.1524 9.23438C16.1524 9.14748 16.1179 9.06414 16.0565 9.00262C15.9952 8.94111 15.9119 8.90645 15.825 8.90625H13.8203C13.6636 8.90348 13.5143 8.83929 13.4044 8.72751C13.2946 8.61573 13.2331 8.4653 13.2331 8.3086C13.2331 8.1519 13.2946 8.00146 13.4044 7.88968C13.5143 7.7779 13.6636 7.71371 13.8203 7.71094H14.2774C14.3644 7.71094 14.4479 7.67637 14.5094 7.61483C14.5709 7.5533 14.6055 7.46984 14.6055 7.38281V6.66806C14.6094 6.35674 14.7358 6.05949 14.9574 5.84072C15.1789 5.62195 15.4777 5.49927 15.7891 5.49927C16.1005 5.49927 16.3993 5.62195 16.6208 5.84072C16.8424 6.05949 16.9688 6.35674 16.9727 6.66806V7.07813C16.9727 7.16515 17.0073 7.24861 17.0688 7.31015C17.1303 7.37168 17.2138 7.40625 17.3008 7.40625ZM19.3821 11.1094V12.8906H18.7648V11.1094H19.3821ZM19.4946 17.7769L15.2663 13.5469H19.7109C19.798 13.5469 19.8814 13.5123 19.943 13.4508C20.0045 13.3892 20.0391 13.3058 20.0391 13.2188V9.32419C20.0388 9.06745 19.954 8.81793 19.7979 8.61409C19.6418 8.41025 19.423 8.26341 19.1753 8.19619C19.1113 7.81985 18.9252 7.47503 18.6457 7.215C18.3662 6.95497 18.0089 6.7942 17.6289 6.7575V6.66769C17.624 6.18295 17.4281 5.71973 17.0835 5.37868C16.739 5.03763 16.2739 4.84633 15.7891 4.84633C15.3043 4.84633 14.8392 5.03763 14.4946 5.37868C14.1501 5.71973 13.9541 6.18295 13.9493 6.66769V7.0545H13.8204C13.4905 7.05854 13.1755 7.19242 12.9437 7.42713C12.7118 7.66185 12.5818 7.97848 12.5818 8.30841C12.5818 8.63833 12.7118 8.95497 12.9437 9.18968C13.1755 9.4244 13.4905 9.55828 13.8204 9.56231H15.525C15.5839 9.89177 15.7302 10.1994 15.9486 10.4529H12.1725L6.22313 4.50394C8.04414 3.09811 10.3149 2.40381 12.6107 2.55089C14.9066 2.69798 17.0702 3.67639 18.6969 5.30311C20.3236 6.92983 21.302 9.09344 21.4491 11.3893C21.5962 13.6851 20.9019 15.9559 19.4961 17.7769H19.4946Z" fill="#548FCC"/>
<path d="M12 0C9.62659 0 7.30651 0.703788 5.33313 2.02236C3.35974 3.34094 1.82167 5.21509 0.913419 7.4078C0.00516885 9.60051 -0.232471 12.0133 0.230551 14.3411C0.693573 16.6689 1.83646 18.8071 3.51469 20.4853C5.19292 22.1635 7.33111 23.3064 9.65888 23.7694C11.9866 24.2324 14.3994 23.9948 16.5922 23.0866C18.7849 22.1783 20.659 20.6402 21.9776 18.6668C23.2962 16.6935 23.9999 14.3734 23.9999 12C23.9964 8.8185 22.7309 5.76833 20.4813 3.51867C18.2316 1.269 15.1815 0.00357316 12 0V0ZM12 23.3438C9.75638 23.3438 7.56319 22.6784 5.69772 21.432C3.83225 20.1855 2.3783 18.4139 1.51971 16.3411C0.661134 14.2683 0.43649 11.9874 0.874191 9.78694C1.31189 7.58647 2.39228 5.56521 3.97873 3.97876C5.56518 2.39231 7.58644 1.31192 9.78691 0.874217C11.9874 0.436516 14.2682 0.66116 16.341 1.51974C18.4138 2.37832 20.1855 3.83228 21.4319 5.69775C22.6784 7.56322 23.3437 9.75642 23.3437 12C23.3403 15.0075 22.144 17.8908 20.0174 20.0175C17.8908 22.1441 15.0075 23.3403 12 23.3438Z" fill="#548FCC"/>
<path d="M4.64552 5.57753C4.61285 5.54544 4.57395 5.52038 4.53122 5.5039C4.48849 5.48742 4.44284 5.47987 4.39708 5.48172C4.35129 5.48406 4.30649 5.49597 4.26558 5.51667C4.22466 5.53737 4.18853 5.5664 4.15952 5.60191C2.57214 7.54417 1.76275 10.0068 1.88838 12.5121C2.01401 15.0174 3.06569 17.3867 4.83941 19.1604C6.61313 20.9341 8.98245 21.9858 11.4877 22.1114C13.993 22.237 16.4556 21.4277 18.3979 19.8403C18.4334 19.8113 18.4625 19.7751 18.4831 19.7342C18.5038 19.6933 18.5157 19.6485 18.518 19.6027C18.5203 19.5569 18.513 19.5111 18.4965 19.4683C18.48 19.4255 18.4547 19.3867 18.4223 19.3543L4.64552 5.57753ZM11.0306 12.89H4.6172V11.1088H9.24939L11.0306 12.89ZM12 21.4687C10.2395 21.4697 8.51363 20.9796 7.01643 20.0534C5.51924 19.1273 4.31011 17.8018 3.525 16.226C2.73989 14.6503 2.40994 12.8868 2.57225 11.1338C2.73456 9.38075 3.38269 7.70778 4.44377 6.30297L8.59314 10.4531H4.28908C4.20206 10.4531 4.1186 10.4877 4.05706 10.5492C3.99553 10.6107 3.96095 10.6942 3.96095 10.7812V13.2187C3.96095 13.3057 3.99553 13.3892 4.05706 13.4507C4.1186 13.5123 4.20206 13.5468 4.28908 13.5468H11.6869L17.697 19.5562C16.0557 20.7947 14.0562 21.466 12 21.4687Z" fill="#548FCC"/>
</g>
<defs>
<clipPath id="clip0">
<rect width="24" height="24" fill="white"/>
</clipPath>
</defs>
</svg>
