<svg width="24" height="24" viewBox="0 0 24 24" fill="none" xmlns="http://www.w3.org/2000/svg">
<path d="M19.464 0.906006H4.53599C4.44898 0.906056 4.36555 0.940642 4.30402 1.00217C4.2425 1.06369 4.20791 1.14712 4.20786 1.23413V22.7659C4.20791 22.8529 4.2425 22.9363 4.30402 22.9978C4.36555 23.0594 4.44898 23.094 4.53599 23.094H19.464C19.551 23.094 19.6344 23.0594 19.696 22.9978C19.7575 22.9363 19.7921 22.8529 19.7921 22.7659V1.23413C19.7921 1.14712 19.7575 1.06369 19.696 1.00217C19.6344 0.940642 19.551 0.906056 19.464 0.906006ZM19.1359 15.4688H12.3281V1.56226H19.1359V15.4688ZM11.6719 1.56226V15.4688H4.86411V1.56226H11.6719ZM4.86411 22.4378V16.125H19.1359V22.4378H4.86411Z" fill="#548FCC"/>
<path d="M13.125 13.0234C13.212 13.0234 13.2954 12.9888 13.357 12.9273C13.4185 12.8658 13.4531 12.7823 13.4531 12.6953V4.33582C13.4531 4.24879 13.4186 4.16533 13.357 4.1038C13.2955 4.04226 13.212 4.00769 13.125 4.00769C13.038 4.00769 12.9545 4.04226 12.893 4.1038C12.8314 4.16533 12.7969 4.24879 12.7969 4.33582V12.6953C12.7969 12.7823 12.8315 12.8658 12.893 12.9273C12.9546 12.9888 13.038 13.0234 13.125 13.0234Z" fill="#548FCC"/>
<path d="M10.875 13.0234C10.962 13.0234 11.0454 12.9888 11.107 12.9273C11.1685 12.8658 11.2031 12.7823 11.2031 12.6953V4.33582C11.2031 4.24879 11.1686 4.16533 11.107 4.1038C11.0455 4.04226 10.962 4.00769 10.875 4.00769C10.788 4.00769 10.7045 4.04226 10.643 4.1038C10.5814 4.16533 10.5469 4.24879 10.5469 4.33582V12.6953C10.5469 12.7823 10.5815 12.8658 10.643 12.9273C10.7046 12.9888 10.788 13.0234 10.875 13.0234Z" fill="#548FCC"/>
<path d="M13.875 16.5938H10.125C10.038 16.5938 9.95452 16.6283 9.89298 16.6899C9.83144 16.7514 9.79688 16.8349 9.79688 16.9219C9.79688 17.0089 9.83144 17.0924 9.89298 17.1539C9.95452 17.2154 10.038 17.25 10.125 17.25H13.875C13.962 17.25 14.0455 17.2154 14.107 17.1539C14.1686 17.0924 14.2031 17.0089 14.2031 16.9219C14.2031 16.8349 14.1686 16.7514 14.107 16.6899C14.0455 16.6283 13.962 16.5938 13.875 16.5938Z" fill="#548FCC"/>
<path d="M6.20626 13.0233H9.20625C9.29326 13.0233 9.37669 12.9887 9.43821 12.9272C9.49974 12.8656 9.53432 12.7822 9.53437 12.6952V8.94519C9.53432 8.85818 9.49974 8.77475 9.43821 8.71323C9.37669 8.6517 9.29326 8.61712 9.20625 8.61707H6.20626C6.11925 8.61712 6.03582 8.6517 5.9743 8.71323C5.91277 8.77475 5.87819 8.85818 5.87814 8.94519V12.6952C5.87819 12.7822 5.91277 12.8656 5.9743 12.9272C6.03582 12.9887 6.11925 13.0233 6.20626 13.0233ZM6.53438 9.27332H7.37813V10.0702C7.37813 10.1572 7.4127 10.2407 7.47424 10.3022C7.53577 10.3637 7.61923 10.3983 7.70625 10.3983C7.79328 10.3983 7.87674 10.3637 7.93827 10.3022C7.99981 10.2407 8.03438 10.1572 8.03438 10.0702V9.27332H8.87813V12.3671H6.53438V9.27332Z" fill="#548FCC"/>
</svg>
