<svg width="24" height="24" viewBox="0 0 24 24" fill="none" xmlns="http://www.w3.org/2000/svg">
<path d="M13.2216 23.3041L9.78054 20.3524C9.78023 20.3522 9.77991 20.3518 9.77954 20.3516L7.36131 18.2772V14.9387C7.36131 14.7202 7.18425 14.5431 6.96574 14.5431C6.74722 14.5431 6.57016 14.7202 6.57016 14.9387V18.2772L0.709908 23.3041C0.54403 23.4464 0.524937 23.6961 0.667186 23.8619C0.809381 24.0277 1.05912 24.0469 1.22495 23.9046L4.454 21.1348L6.57011 22.2598V23.6044C6.57011 23.8229 6.74717 24 6.96569 24C7.1842 24 7.36126 23.8229 7.36126 23.6044V22.2598L9.47743 21.1348L12.7064 23.9046C12.7811 23.9687 12.8726 24 12.9638 24C13.0752 24 13.186 23.9532 13.2642 23.862C13.4066 23.6961 13.3875 23.4464 13.2216 23.3041ZM5.09894 20.5816L6.57022 19.3196V21.3638L5.09894 20.5816ZM7.36137 21.3638V19.3196L8.83264 20.5816L7.36137 21.3638Z" fill="#548FCC"/>
<path d="M19.9243 12.6827C19.9242 12.6827 19.9241 12.6827 19.9241 12.6827C19.7056 12.6828 19.5286 12.8599 19.5287 13.0784C19.5291 13.9589 19.2864 14.6484 18.8071 15.1278C18.8071 15.1278 18.807 15.1279 18.807 15.1279L18.8065 15.1284C17.9715 15.9629 16.4886 16.0814 14.631 15.4622C12.6806 14.8121 10.5875 13.4351 8.73733 11.5849C6.88715 9.73473 5.51013 7.64166 4.86001 5.69122C4.24065 3.83317 4.35937 2.35014 5.1943 1.51521C6.02917 0.680338 7.51221 0.561612 9.37025 1.18092C11.3207 1.83109 13.4138 3.20806 15.2639 5.05824C16.7134 6.50773 17.8792 8.1144 18.6351 9.70461C18.7289 9.90198 18.965 9.98579 19.1622 9.89206C19.3595 9.79828 19.4434 9.56226 19.3496 9.36495C18.5553 7.69409 17.336 6.01137 15.8234 4.49879C13.8881 2.56343 11.6851 1.11858 9.62041 0.430387C7.46337 -0.288662 5.69278 -0.102109 4.63485 0.955763C4.63448 0.956132 4.63417 0.956502 4.6338 0.956871L4.2619 1.32871C2.91943 2.67119 2.44753 4.70671 2.93319 7.06033C3.40656 9.35403 4.73928 11.6894 6.68604 13.6362C9.50063 16.4507 12.2455 17.2341 14.0525 17.3956C14.315 17.4191 14.5763 17.4306 14.8344 17.4306C16.5534 17.4306 18.132 16.9218 18.9935 16.0603L19.366 15.6878C19.3661 15.6877 19.3663 15.6875 19.3664 15.6874C19.9906 15.0631 20.3203 14.1608 20.3198 13.0781C20.3198 12.8596 20.1427 12.6827 19.9243 12.6827ZM14.123 16.6075C12.4464 16.4577 9.89225 15.7234 7.24549 13.0767C4.36586 10.1971 3.05572 6.57224 3.69322 3.94947C3.73494 4.56393 3.87287 5.23156 4.10942 5.94138C4.79767 8.00607 6.24247 10.209 8.17783 12.1443C10.1132 14.0797 12.3161 15.5245 14.3808 16.2128C14.8954 16.3843 15.3878 16.5039 15.854 16.5728C15.3269 16.6446 14.7455 16.6632 14.123 16.6075Z" fill="#548FCC"/>
<path d="M23.3122 7.45263L21.5407 5.68114C21.3862 5.52666 21.1357 5.52666 20.9812 5.68114C20.8268 5.83563 20.8268 6.0861 20.9812 6.24054L21.0746 6.33379L20.2354 7.17288C20.0809 7.32736 20.0809 7.57779 20.2354 7.73227C20.3126 7.80954 20.4138 7.84815 20.5151 7.84815C20.6163 7.84815 20.7176 7.80954 20.7948 7.73227L21.634 6.89313L22.4732 7.73227L16.9422 13.2631C16.7877 13.4176 16.7877 13.6681 16.9422 13.8225C17.0195 13.8998 17.1208 13.9384 17.222 13.9384C17.3232 13.9384 17.4245 13.8998 17.5017 13.8225L23.3122 8.01202C23.3864 7.93787 23.4281 7.83723 23.4281 7.73233C23.4281 7.62742 23.3864 7.52679 23.3122 7.45263Z" fill="#548FCC"/>
</svg>
