<svg width="24" height="24" viewBox="0 0 24 24" fill="none" xmlns="http://www.w3.org/2000/svg">
<path d="M21.3314 6.80805C20.9628 6.80805 20.6632 7.10718 20.6632 7.4762V19.6763C20.6632 20.9657 19.6141 22.0147 18.3249 22.0147H3.67464C2.3855 22.0147 1.33629 20.9657 1.33629 19.6763V5.02602C1.33629 3.73659 2.3855 2.6876 3.67464 2.6876H18.3249C18.6941 2.6876 18.9931 2.38842 18.9931 2.01946C18.9931 1.65045 18.6943 1.35132 18.3249 1.35132H3.67464C1.64882 1.35137 0 2.9998 0 5.02596V19.6763C0 21.7025 1.64882 23.3509 3.67464 23.3509H18.3249C20.3514 23.3509 21.9996 21.7025 21.9996 19.6763V7.47614C21.9995 7.10724 21.7007 6.80805 21.3314 6.80805Z" fill="#548FCC"/>
<path d="M23.8043 0.84491C23.5433 0.583923 23.1198 0.583923 22.8596 0.84491L9.43452 14.2693L6.07898 10.9141C5.81805 10.6532 5.39517 10.6532 5.13424 10.9141C4.8733 11.1751 4.8733 11.5981 5.13424 11.8589L8.9628 15.6865C9.09335 15.8171 9.2643 15.8822 9.4352 15.8822C9.60616 15.8822 9.77717 15.8171 9.9076 15.6865C9.9076 15.6861 9.90761 15.6858 9.90828 15.6855L23.8043 1.7896C24.0652 1.52884 24.0652 1.10567 23.8043 0.84491Z" fill="#548FCC"/>
</svg>
