<svg width="24" height="24" viewBox="0 0 24 24" fill="none" xmlns="http://www.w3.org/2000/svg">
<g clip-path="url(#clip0)">
<path d="M23.8719 8.35862C20.706 5.1923 16.4894 3.44873 12 3.44873C7.51059 3.44873 3.29437 5.19186 0.128056 8.35862C-0.0428481 8.52952 -0.0428481 8.80576 0.128056 8.97667C0.29896 9.14757 0.575204 9.14757 0.746108 8.97667C3.7472 5.97514 7.74399 4.32248 12 4.32248C16.256 4.32248 20.2528 5.97514 23.2539 8.97623C23.3391 9.06146 23.451 9.1043 23.5629 9.1043C23.6748 9.1043 23.7867 9.06146 23.8719 8.97623C24.0428 8.80576 24.0428 8.52908 23.8719 8.35862Z" fill="#548FCC"/>
<path d="M2.6973 10.9274C2.5264 11.0983 2.5264 11.3746 2.6973 11.5455C2.78253 11.6307 2.89443 11.6735 3.00633 11.6735C3.11822 11.6735 3.23012 11.6307 3.31535 11.5455C8.10373 6.75667 15.8954 6.75667 20.6842 11.5455C20.8551 11.7164 21.1313 11.7164 21.3022 11.5455C21.4731 11.3746 21.4731 11.0983 21.3022 10.9274C16.1734 5.79855 7.82704 5.79768 2.6973 10.9274Z" fill="#548FCC"/>
<path d="M12 10.7124C9.45393 10.7124 7.06303 11.7015 5.267 13.4971C5.0961 13.668 5.0961 13.9443 5.267 14.1152C5.43791 14.2861 5.71415 14.2861 5.88505 14.1152C7.51586 12.4848 9.68734 11.5866 12 11.5866C14.3127 11.5866 16.4842 12.4848 18.115 14.1152C18.2002 14.2004 18.3121 14.2433 18.424 14.2433C18.5359 14.2433 18.6478 14.2004 18.733 14.1152C18.9039 13.9443 18.9039 13.668 18.733 13.4971C16.9374 11.7015 14.5461 10.7124 12 10.7124Z" fill="#548FCC"/>
<path d="M12 14.8246C10.4212 14.8246 9.13657 16.1092 9.13657 17.6884C9.13657 19.2677 10.4212 20.5523 12 20.5523C13.5792 20.5523 14.8638 19.2677 14.8638 17.6884C14.8638 16.1092 13.5792 14.8246 12 14.8246ZM12 19.6776C10.9029 19.6776 10.0108 18.7851 10.0108 17.688C10.0108 16.5909 10.9033 15.6983 12 15.6983C13.0966 15.6983 13.9896 16.5909 13.9896 17.688C13.9896 18.7851 13.0971 19.6776 12 19.6776Z" fill="#548FCC"/>
</g>
<defs>
<clipPath id="clip0">
<rect width="24" height="24" fill="white"/>
</clipPath>
</defs>
</svg>
